<?xml version="1.0" encoding="UTF-8" standalone="no"?>
<svg
   xmlns:dc="http://purl.org/dc/elements/1.1/"
   xmlns:cc="http://creativecommons.org/ns#"
   xmlns:rdf="http://www.w3.org/1999/02/22-rdf-syntax-ns#"
   xmlns:svg="http://www.w3.org/2000/svg"
   xmlns="http://www.w3.org/2000/svg"
   xmlns:sodipodi="http://sodipodi.sourceforge.net/DTD/sodipodi-0.dtd"
   xmlns:inkscape="http://www.inkscape.org/namespaces/inkscape"
   xml:space="preserve"
   width="160mm"
   height="130mm"
   version="1.1"
   style="clip-rule:evenodd;fill-rule:evenodd;image-rendering:optimizeQuality;shape-rendering:geometricPrecision;text-rendering:geometricPrecision"
   viewBox="0 0 10774.411 11142.857"
   id="svg4260"
   inkscape:version="0.91 r13725"
   sodipodi:docname="logo_bbb.svg"><metadata
     id="metadata4341"><rdf:RDF><cc:Work
         rdf:about=""><dc:format>image/svg+xml</dc:format><dc:type
           rdf:resource="http://purl.org/dc/dcmitype/StillImage" /><dc:title></dc:title></cc:Work></rdf:RDF></metadata><sodipodi:namedview
     pagecolor="#ffffff"
     bordercolor="#666666"
     borderopacity="1"
     objecttolerance="10"
     gridtolerance="10"
     guidetolerance="10"
     inkscape:pageopacity="0"
     inkscape:pageshadow="2"
     inkscape:window-width="1848"
     inkscape:window-height="1115"
     id="namedview4339"
     showgrid="false"
     inkscape:zoom="0.86274963"
     inkscape:cx="542.57304"
     inkscape:cy="372.04724"
     inkscape:window-x="0"
     inkscape:window-y="0"
     inkscape:window-maximized="0"
     inkscape:current-layer="svg4260" /><defs
     id="defs4262"><style
       type="text/css"
       id="style4264"><![CDATA[
    .fil0 {fill:#2B2A29}
    .fil2 {fill:#FEFEFE}
    .fil1 {fill:#FFD100}
   ]]></style></defs><g
     id="Vrstva_x0020_1"
     transform="translate(-9971.6304,-3211.1303)"><metadata
       id="CorelCorpID_0Corel-Layer" /><g
       id="_646761872"><path
         class="fil0"
         d="m 15788,13182 c 1152,-258 2014,-1312 2014,-2574 0,-386 -81,-752 -226,-1082 -172,-414 -183,-633 -76,-1158 21,-103 34,-208 34,-316 0,-424 -182,-813 -486,-1123 l 1016,-1156 c 11,-13 10,-32 -3,-44 -13,-12 -33,-12 -45,1 -430,426 -1546,712 -2777,712 -1231,0 -2347,-286 -2777,-712 -12,-12 -32,-12 -45,-1 -13,12 -14,32 -3,44 l 1004,1142 c -312,312 -499,707 -499,1137 0,108 13,213 34,316 107,525 97,744 -76,1158 -7,15 -13,31 -19,46 l 1519,0 0,2268 -1429,0 c 348,675 972,1176 1717,1343 -965,44 -1850,198 -2580,433 l 176,537 c 764,-246 1772,-416 2964,-416 1193,0 2200,171 2964,416 l 176,-537 c -729,-235 -1615,-390 -2580,-433 z M 14398,8467 c -384,0 -696,-343 -696,-766 0,-192 65,-367 171,-502 l 349,141 c -117,69 -196,205 -196,361 0,226 167,410 372,410 205,0 372,-183 372,-410 0,-53 -9,-103 -26,-150 l 350,141 c 0,3 0,6 0,9 0,423 -312,766 -696,766 z m 962,-766 c 0,-3 0,-6 0,-9 l 350,-141 c -17,46 -26,97 -26,150 0,226 167,410 372,410 205,0 372,-183 372,-410 0,-156 -79,-292 -196,-361 l 349,-141 c 106,134 171,310 171,502 0,423 -312,766 -696,766 -384,0 -696,-343 -696,-766 z"
         id="path4269"
         inkscape:connector-curvature="0"
         style="fill:#2b2a29" /><path
         class="fil0"
         d="m 12708,9455 c 154,-371 166,-557 65,-1050 -4,-18 -6,-35 -9,-52 -303,309 -531,675 -663,1078 l -823,0 0,2551 1284,0 c 192,236 426,437 692,599 -486,-509 -786,-1205 -786,-1972 0,-403 81,-791 240,-1153 z"
         id="path4271"
         inkscape:connector-curvature="0"
         style="fill:#2b2a29" /><path
         class="fil1"
         d="m 11420,11840 0,-2268 639,0 c -55,209 -84,427 -84,650 0,642 176,1184 481,1617 l -1035,0 z"
         id="path4273"
         inkscape:connector-curvature="0"
         style="fill:#ffd100" /><path
         class="fil0"
         d="m 17694,8337 c -4,22 -8,45 -12,68 -101,493 -89,679 64,1047 160,365 241,754 241,1156 0,781 -311,1488 -812,1999 803,-472 1324,-1280 1324,-2385 0,-722 -304,-1381 -805,-1886 z"
         id="path4275"
         inkscape:connector-curvature="0"
         style="fill:#2b2a29" /><path
         class="fil0"
         d="m 8789,10923 c -14,60 -19,93 -11,151 9,63 42,133 124,121 150,-22 66,-352 323,-390 167,-25 252,94 275,251 8,55 0,111 -9,165 l -106,4 c 10,-40 23,-111 14,-168 -9,-64 -58,-148 -150,-134 -174,26 -77,354 -320,390 -139,20 -229,-78 -249,-219 -8,-51 -8,-114 3,-171 l 105,1 z"
         id="path4277"
         inkscape:connector-curvature="0"
         style="fill:#2b2a29" /><path
         class="fil0"
         d="m 8623,10300 3,-207 c 3,-162 61,-295 241,-292 175,3 235,141 233,283 l -2,111 315,5 -2,113 -789,-13 z m 376,-107 2,-112 c 1,-70 -32,-159 -136,-160 -99,-2 -137,102 -138,172 l -2,96 275,4 z"
         id="path4279"
         inkscape:connector-curvature="0"
         style="fill:#2b2a29" /><path
         class="fil0"
         d="m 8644,9590 23,-192 c 19,-155 61,-301 249,-279 95,11 154,90 159,183 l 2,0 c 18,-33 37,-48 88,-67 l 330,-111 -15,128 -286,87 c -81,26 -85,63 -92,122 l -8,67 348,42 -13,112 -783,-94 z m 350,-72 11,-95 c 13,-107 -27,-175 -102,-184 -71,-8 -122,40 -134,143 l -13,108 238,29 z"
         id="path4281"
         inkscape:connector-curvature="0"
         style="fill:#2b2a29" /><path
         class="fil0"
         d="m 8626,8410 30,-119 121,184 -19,73 -133,-138 z m 190,146 29,-115 847,-129 -30,119 -213,29 -95,375 173,127 -29,115 -682,-521 z m 117,-28 340,249 77,-305 -418,56 z"
         id="path4283"
         inkscape:connector-curvature="0"
         style="fill:#2b2a29" /><polygon
         class="fil0"
         points="9782,8096 8939,8088 8984,7970 9715,7993 9716,7991 9163,7509 9206,7398 9833,7964 "
         id="polygon4285"
         style="fill:#2b2a29" /><polygon
         class="fil0"
         points="9786,7004 9874,7050 9733,7315 9963,7437 10117,7146 10205,7193 9998,7583 9301,7213 9508,6823 9596,6870 9442,7160 9645,7268 "
         id="polygon4287"
         style="fill:#2b2a29" /><polygon
         class="fil0"
         points="10439,6601 10054,6017 10165,5867 10801,6334 10734,6425 10184,6021 10182,6023 10578,6637 10513,6727 9808,6533 9806,6535 10357,6939 10290,7030 9654,6563 9764,6413 "
         id="polygon4289"
         style="fill:#2b2a29" /><path
         class="fil0"
         d="m 10972,5228 c -58,23 -88,37 -131,76 -46,43 -86,110 -30,171 103,111 328,-145 505,46 114,124 64,261 -52,368 -41,38 -91,63 -141,86 l -63,-85 c 39,-14 104,-44 146,-83 47,-44 89,-132 26,-200 -120,-129 -336,136 -502,-44 -95,-103 -64,-233 40,-330 38,-35 90,-71 143,-94 l 59,87 z"
         id="path4291"
         inkscape:connector-curvature="0"
         style="fill:#2b2a29" /><polygon
         class="fil0"
         points="11100,5088 11040,5008 11522,4646 11582,4725 11386,4873 11800,5424 11710,5492 11296,4941 "
         id="polygon4293"
         style="fill:#2b2a29" /><path
         class="fil0"
         d="m 11802,4216 106,-63 -44,216 -65,39 3,-191 z m 31,238 102,-61 690,508 -106,63 -171,-130 -332,197 33,212 -102,61 -113,-850 z m 102,63 65,417 270,-160 -335,-256 z"
         id="path4295"
         inkscape:connector-curvature="0"
         style="fill:#2b2a29" /><polygon
         class="fil0"
         points="12375,4263 12335,4171 12888,3930 12928,4021 12703,4119 12979,4751 12875,4796 12599,4164 "
         id="polygon4297"
         style="fill:#2b2a29" /><polygon
         class="fil0"
         points="13677,3682 13901,4439 13762,4480 13235,3959 13233,3960 13417,4582 13309,4614 13085,3857 13232,3814 13747,4324 13749,4323 13568,3714 "
         id="polygon4299"
         style="fill:#2b2a29" /><path
         class="fil0"
         d="m 13989,3396 121,-23 -115,188 -74,14 68,-179 z m -39,232 111,-21 149,775 -111,21 -149,-775 z"
         id="path4301"
         inkscape:connector-curvature="0"
         style="fill:#2b2a29" /><path
         class="fil0"
         d="m 14636,4219 c 25,7 50,8 72,6 101,-7 124,-67 117,-163 l -40,-548 113,-8 42,584 c 8,111 -35,220 -205,233 -36,3 -68,0 -92,-7 l -7,-97 z"
         id="path4303"
         inkscape:connector-curvature="0"
         style="fill:#2b2a29" /><path
         class="fil0"
         d="m 15435,3499 119,4 307,800 -123,-4 -74,-202 -386,-13 -87,196 -119,-4 363,-777 z m 52,108 -170,386 314,10 -144,-396 z"
         id="path4305"
         inkscape:connector-curvature="0"
         style="fill:#2b2a29" /><polygon
         class="fil0"
         points="16466,4301 16450,4399 15911,4314 15927,4214 16422,3697 16031,3635 16047,3537 16566,3619 16550,3719 16056,4237 "
         id="polygon4307"
         style="fill:#2b2a29" /><polygon
         class="fil0"
         points="17425,3844 17004,4203 16915,4520 16806,4490 16895,4172 16723,3647 16850,3683 16980,4087 17297,3809 "
         id="polygon4309"
         style="fill:#2b2a29" /><polygon
         class="fil0"
         points="18184,4160 17696,4357 17900,4897 17748,4832 17577,4338 17425,4694 17321,4649 17632,3924 17736,3969 17599,4288 18045,4101 "
         id="polygon4311"
         style="fill:#2b2a29" /><path
         class="fil0"
         d="m 18712,4442 c 205,124 235,346 114,546 -124,205 -330,277 -536,152 -206,-125 -238,-341 -114,-546 121,-200 331,-277 536,-152 z m -371,613 c 156,94 301,5 382,-129 83,-137 87,-309 -63,-399 -148,-91 -299,-8 -382,129 -81,134 -93,304 63,399 z"
         id="path4313"
         inkscape:connector-curvature="0"
         style="fill:#2b2a29" /><polygon
         class="fil0"
         points="18906,5553 19174,4753 19272,4833 19025,5521 19027,5523 19656,5146 19748,5221 19016,5642 "
         id="polygon4315"
         style="fill:#2b2a29" /><path
         class="fil0"
         d="m 19894,5367 308,317 -71,69 -229,-236 -166,161 209,215 -71,69 -209,-215 -187,181 229,236 -71,69 -308,-317 566,-549 z m 321,15 86,88 -220,7 -53,-54 187,-41 z"
         id="path4317"
         inkscape:connector-curvature="0"
         style="fill:#2b2a29" /><polygon
         class="fil0"
         points="20306,6955 20225,7012 19912,6564 19996,6506 20712,6505 20485,6180 20567,6123 20868,6554 20784,6612 20069,6614 "
         id="polygon4319"
         style="fill:#2b2a29" /><polygon
         class="fil0"
         points="21284,7299 20780,7148 20603,7697 20525,7552 20700,7060 20359,7242 20305,7142 21001,6770 21054,6870 20748,7033 21213,7167 "
         id="polygon4321"
         style="fill:#2b2a29" /><path
         class="fil0"
         d="m 21521,7849 c 82,225 -33,417 -252,497 -225,82 -431,10 -514,-216 -83,-226 27,-415 252,-497 220,-81 431,-9 514,216 z m -673,247 c 63,171 232,192 379,138 151,-55 261,-187 200,-350 -59,-164 -229,-193 -379,-138 -147,54 -263,179 -200,350 z"
         id="path4323"
         inkscape:connector-curvature="0"
         style="fill:#2b2a29" /><path
         class="fil0"
         d="m 21382,9174 c -217,45 -356,-40 -396,-231 -40,-190 54,-324 271,-369 l 453,-94 23,111 -438,91 c -148,31 -240,99 -211,241 30,143 141,168 290,137 l 438,-91 23,111 -453,94 z"
         id="path4325"
         inkscape:connector-curvature="0"
         style="fill:#2b2a29" /><path
         class="fil0"
         d="m 21784,9740 c 18,-59 25,-92 20,-150 -6,-63 -35,-135 -117,-128 -151,13 -86,348 -345,371 -168,15 -246,-109 -259,-267 -5,-55 6,-111 19,-164 l 106,2 c -12,40 -29,109 -24,167 6,64 50,151 142,143 176,-15 98,-349 342,-370 140,-12 224,92 236,234 5,52 1,115 -13,170 l -105,-7 z m 165,-139 -9,-102 152,-127 8,90 -104,84 117,64 8,89 -172,-97 z"
         id="path4327"
         inkscape:connector-curvature="0"
         style="fill:#2b2a29" /><polygon
         class="fil0"
         points="21902,10630 21538,10250 21113,10641 21117,10476 21512,10133 21125,10124 21128,10011 21917,10030 21914,10143 21567,10135 21906,10480 "
         id="polygon4329"
         style="fill:#2b2a29" /><polygon
         class="fil0"
         points="21780,11511 21373,11138 21047,11088 21064,10976 21390,11026 21891,10790 21871,10921 21485,11100 21800,11380 "
         id="polygon4331"
         style="fill:#2b2a29" /><polygon
         class="fil1"
         points="14929,8601 15227,8123 15525,8601 15227,9079 "
         id="polygon4333"
         style="fill:#ffd100" /><path
         class="fil2"
         d="m 16229,7592 c 0,67 -54,120 -120,120 -67,0 -120,-54 -120,-120 0,-67 54,-120 120,-120 67,0 120,54 120,120 z"
         id="path4335"
         inkscape:connector-curvature="0"
         style="fill:#fefefe" /><path
         class="fil2"
         d="m 14609,7592 c 0,67 -54,120 -120,120 -66,0 -120,-54 -120,-120 0,-67 54,-120 120,-120 67,0 120,54 120,120 z"
         id="path4337"
         inkscape:connector-curvature="0"
         style="fill:#fefefe" /></g></g></svg>